<svg width="16" height="16" viewBox="0 0 16 16" fill="none" xmlns="http://www.w3.org/2000/svg">
<path d="M11.293 3.29289C11.6835 2.90237 12.3165 2.90237 12.707 3.29289C13.0975 3.68342 13.0975 4.31643 12.707 4.70696L4.70702 12.707C4.31649 13.0975 3.68348 13.0975 3.29295 12.707C2.90243 12.3164 2.90243 11.6834 3.29295 11.2929L11.293 3.29289Z" fill="#717B96"/>
<path d="M11 12V5H4C3.44772 5 3 4.55228 3 4C3 3.44772 3.44772 3 4 3H12C12.5523 3 13 3.44772 13 4V12C13 12.5523 12.5523 13 12 13C11.4477 13 11 12.5523 11 12Z" fill="#717B96"/>
</svg>
