<svg width="24" height="24" viewBox="0 0 24 24" fill="none" xmlns="http://www.w3.org/2000/svg">
<path d="M12.3861 5.15818L17.8401 10.5424C17.9425 10.6435 18 10.7807 18 10.9236C18 11.0666 17.9425 11.2037 17.8401 11.3048C17.7376 11.4059 17.5987 11.4627 17.4539 11.4627C17.3091 11.4627 17.1702 11.4059 17.0678 11.3048L12.5454 6.83914V18.4616C12.5454 18.6044 12.4879 18.7413 12.3857 18.8423C12.2834 18.9433 12.1446 19 12 19C11.8554 19 11.7166 18.9433 11.6143 18.8423C11.5121 18.7413 11.4546 18.6044 11.4546 18.4616V6.83914L6.93222 11.3048C6.82981 11.4059 6.69091 11.4627 6.54608 11.4627C6.40125 11.4627 6.26235 11.4059 6.15994 11.3048C6.05753 11.2037 6 11.0666 6 10.9236C6 10.7807 6.05753 10.6435 6.15994 10.5424L11.6139 5.15818C11.6645 5.10804 11.7247 5.06826 11.791 5.04111C11.8572 5.01397 11.9283 5 12 5C12.0717 5 12.1428 5.01397 12.209 5.04111C12.2753 5.06826 12.3355 5.10804 12.3861 5.15818Z" fill="black"/>
</svg>
