<svg width="133" height="42" viewBox="0 0 133 42" fill="none" xmlns="http://www.w3.org/2000/svg">
<path d="M40.9608 19.5774V16.8591H51.2054V19.5774H40.9608Z" fill="white"/>
<path d="M71.7408 14.0742V17.1221C71.7408 18.9218 70.2766 20.3846 68.4785 20.3846H56.8215V26.3494H54.1035V10.8103H68.4785C70.2766 10.8103 71.7408 12.2745 71.7408 14.0728V14.0742ZM69.0227 14.0742C69.0227 13.7747 68.7794 13.53 68.4785 13.53H56.8215V19.073C56.8532 17.9946 57.8235 17.7268 58.5506 17.6678H68.4785C68.7794 17.6678 69.0227 17.423 69.0227 17.1236V14.0756V14.0742Z" fill="white"/>
<path d="M92.0688 15.3772V26.348H89.3507V21.1332H77.0718V26.348H74.3538V15.3772C74.3538 12.8591 76.4024 10.8103 78.9204 10.8103H87.5022C90.0202 10.8103 92.0688 12.8591 92.0688 15.3772ZM89.3507 15.3772C89.3507 14.3578 88.5215 13.5285 87.5022 13.5285H78.9204C77.9011 13.5285 77.0718 14.3578 77.0718 15.3772V19.8202C77.0718 19.8 77.0733 19.7799 77.0747 19.7583C77.1338 18.834 78.012 18.4496 78.834 18.4164C79.4099 18.3934 89.142 18.4136 89.3507 18.4136V15.3757V15.3772Z" fill="white"/>
<path d="M112.663 16.0697H109.945V14.9697C109.945 14.175 109.315 13.5285 108.542 13.5285H99.1664C98.3933 13.5285 97.7627 14.175 97.7627 14.9697V15.7788C97.7627 16.5721 98.3919 17.22 99.1664 17.22H108.542C110.813 17.2215 112.663 19.0874 112.663 21.3794V22.1886C112.663 24.4821 110.815 26.348 108.542 26.348H99.1664C96.8946 26.348 95.0446 24.4821 95.0446 22.1886V21.0886H97.7627V22.1886C97.7627 22.9833 98.3919 23.6297 99.1664 23.6297H108.542C109.315 23.6297 109.945 22.9833 109.945 22.1886V21.3794C109.945 20.5847 109.315 19.9383 108.542 19.9383H99.1664C96.8946 19.9368 95.0446 18.0709 95.0446 15.7774V14.9683C95.0446 12.6762 96.8932 10.8103 99.1664 10.8103H108.542C110.813 10.8103 112.663 12.6762 112.663 14.9683V16.0682V16.0697Z" fill="white"/>
<path d="M133 16.0697H130.282V14.9697C130.282 14.175 129.651 13.5285 128.878 13.5285H119.503C118.73 13.5285 118.099 14.175 118.099 14.9697V15.7788C118.099 16.5721 118.729 17.22 119.503 17.22H128.878C131.15 17.2215 133 19.0874 133 21.3794V22.1886C133 24.4821 131.151 26.348 128.878 26.348H119.503C117.231 26.348 115.381 24.4821 115.381 22.1886V21.0886H118.099V22.1886C118.099 22.9833 118.729 23.6297 119.503 23.6297H128.878C129.651 23.6297 130.282 22.9833 130.282 22.1886V21.3794C130.282 20.5847 129.651 19.9383 128.878 19.9383H119.503C117.231 19.9368 115.381 18.0709 115.381 15.7774V14.9683C115.381 12.6762 117.23 10.8103 119.503 10.8103H128.878C131.15 10.8103 133 12.6762 133 14.9683V16.0682V16.0697Z" fill="white"/>
<path d="M26.878 15.3772V26.348H24.1599V21.1332H11.881V26.348H9.16293V15.3772C9.16293 12.8591 11.2116 10.8103 13.7295 10.8103H22.3114C24.8294 10.8103 26.878 12.8591 26.878 15.3772ZM24.1599 15.3772C24.1599 14.3578 23.3307 13.5285 22.3114 13.5285H13.7295C12.7103 13.5285 11.881 14.3578 11.881 15.3772V19.8202C11.881 19.8 11.8825 19.7799 11.8839 19.7583C11.9429 18.834 12.8211 18.4496 13.6432 18.4164C14.219 18.3934 23.9512 18.4136 24.1599 18.4136V15.3757V15.3772Z" fill="white"/>
<path d="M36.6375 10.9111H36.6217V5.94114C36.6217 4.85558 36.1178 4.284 34.9848 4.09107C34.2073 3.95862 33.4299 3.82904 32.6525 3.69803C30.9235 3.40864 29.1368 3.11061 27.3877 2.78811C25.0626 2.36051 22.0379 1.68671 19.2708 0.262805C18.5812 -0.0928103 17.9507 -0.0870514 17.2265 0.277203C15.2743 1.26199 13.1623 1.98042 10.951 2.41234C8.62163 2.8673 6.24042 3.28194 3.93696 3.68363C3.1653 3.81896 2.39364 3.95286 1.62342 4.08963C0.519198 4.28688 0.00379821 4.85414 0.00379821 5.87635V7.88335C-0.000520785 9.60528 -0.00196045 11.3258 0.00379821 13.0477C0.0124362 15.6752 0.0973765 18.5014 0.654527 21.3636C1.26494 24.4994 2.45555 27.412 4.19322 30.0208C5.9093 32.5979 8.07888 34.867 10.8243 36.9589C12.7866 38.4534 14.9144 39.8125 17.3302 41.1169C17.6397 41.2839 17.9463 41.3688 18.2544 41.3688C18.5625 41.3688 18.8562 41.2882 19.1629 41.1284C22.035 39.6267 24.6825 37.8818 27.0306 35.941C32.6453 31.3007 35.8068 25.2481 36.4259 17.9471C36.554 16.4354 36.5929 14.8978 36.6289 13.4105C36.6461 12.7194 36.6634 12.0284 36.6893 11.3373L36.6389 10.9126L36.6375 10.9111ZM2.37349 11.392V10.4418C2.37493 9.06682 2.37636 7.6933 2.36629 6.31979C2.36629 6.3054 2.36629 6.29244 2.36629 6.28092C2.38212 6.2766 2.40516 6.27228 2.43539 6.26652C2.97383 6.1787 3.51226 6.09231 4.05213 6.00449C5.87619 5.71078 7.76215 5.40844 9.60636 5.04994C13.0889 4.37326 15.6645 3.57421 17.9535 2.45841C18.181 2.34755 18.312 2.34755 18.5366 2.45553C21.5556 3.90679 24.7876 4.63818 27.8296 5.21263C29.2923 5.48762 30.7838 5.73094 32.2264 5.96418C32.8123 6.0592 33.3983 6.15422 34.0044 6.255C34.0735 6.26652 34.1498 6.27948 34.2088 6.291C34.2088 6.34715 34.2088 6.41625 34.2088 6.47816C34.2001 7.50038 34.1987 8.52259 34.1973 9.54481C34.1929 11.8498 34.1901 14.234 34.108 16.5722C33.9496 21.0786 32.8368 24.9184 30.7046 28.3147C29.3801 30.4239 27.677 32.346 25.4974 34.1932C23.1349 36.1944 20.4902 37.7752 18.4502 38.9299C18.2933 39.0192 18.2415 39.0264 18.0529 38.9198C15.054 37.2238 12.7621 35.666 10.8387 34.0161C6.79613 30.5477 4.2105 26.4027 3.1509 21.6962C2.48146 18.7174 2.38788 15.6464 2.38644 13.0333V11.3906H2.37636L2.37349 11.392Z" fill="#FF2625"/>
</svg>
