<svg width="136" height="43" viewBox="0 0 136 43" fill="none" xmlns="http://www.w3.org/2000/svg">
<path d="M41.8845 20.0188V17.2393H52.3603V20.0188H41.8845Z" fill="#353D51"/>
<path d="M73.3588 14.3922V17.5089C73.3588 19.3492 71.8616 20.8449 70.0229 20.8449H58.103V26.9443H55.3235V11.0547H70.0229C71.8616 11.0547 73.3588 12.5519 73.3588 14.3907V14.3922ZM70.5794 14.3922C70.5794 14.086 70.3306 13.8357 70.0229 13.8357H58.103V19.5038C58.1353 18.4011 59.1276 18.1272 59.871 18.0669H70.0229C70.3306 18.0669 70.5794 17.8166 70.5794 17.5104V14.3937V14.3922Z" fill="#353D51"/>
<path d="M94.1456 15.7246V26.9429H91.3662V21.6105H78.8103V26.9429H76.0309V15.7246C76.0309 13.1497 78.1258 11.0547 80.7006 11.0547H89.476C92.0508 11.0547 94.1456 13.1497 94.1456 15.7246ZM91.3662 15.7246C91.3662 14.6822 90.5183 13.8342 89.476 13.8342H80.7006C79.6583 13.8342 78.8103 14.6822 78.8103 15.7246V20.2678C78.8103 20.2472 78.8118 20.2266 78.8133 20.2045C78.8736 19.2594 79.7716 18.8663 80.6122 18.8324C81.2011 18.8089 91.1528 18.8295 91.3662 18.8295V15.7231V15.7246Z" fill="#353D51"/>
<path d="M115.204 16.4327H112.425V15.3079C112.425 14.4953 111.78 13.8342 110.99 13.8342H101.403C100.613 13.8342 99.9678 14.4953 99.9678 15.3079V16.1353C99.9678 16.9465 100.611 17.609 101.403 17.609H110.99C113.313 17.6105 115.204 19.5185 115.204 21.8622V22.6896C115.204 25.0349 113.314 26.9429 110.99 26.9429H101.403C99.0801 26.9429 97.1884 25.0349 97.1884 22.6896V21.5649H99.9678V22.6896C99.9678 23.5023 100.611 24.1633 101.403 24.1633H110.99C111.78 24.1633 112.425 23.5023 112.425 22.6896V21.8622C112.425 21.0496 111.78 20.3886 110.99 20.3886H101.403C99.0801 20.3871 97.1884 18.4791 97.1884 16.1338V15.3065C97.1884 12.9627 99.0786 11.0547 101.403 11.0547H110.99C113.313 11.0547 115.204 12.9627 115.204 15.3065V16.4312V16.4327Z" fill="#353D51"/>
<path d="M136 16.4327H133.221V15.3079C133.221 14.4953 132.576 13.8342 131.785 13.8342H122.199C121.408 13.8342 120.763 14.4953 120.763 15.3079V16.1353C120.763 16.9465 121.407 17.609 122.199 17.609H131.785C134.108 17.6105 136 19.5185 136 21.8622V22.6896C136 25.0349 134.11 26.9429 131.785 26.9429H122.199C119.876 26.9429 117.984 25.0349 117.984 22.6896V21.5649H120.763V22.6896C120.763 23.5023 121.407 24.1633 122.199 24.1633H131.785C132.576 24.1633 133.221 23.5023 133.221 22.6896V21.8622C133.221 21.0496 132.576 20.3886 131.785 20.3886H122.199C119.876 20.3871 117.984 18.4791 117.984 16.1338V15.3065C117.984 12.9627 119.874 11.0547 122.199 11.0547H131.785C134.108 11.0547 136 12.9627 136 15.3065V16.4312V16.4327Z" fill="#353D51"/>
<path d="M27.4842 15.7246V26.9429H24.7048V21.6105H12.1489V26.9429H9.36948V15.7246C9.36948 13.1497 11.4643 11.0547 14.0391 11.0547H22.8145C25.3893 11.0547 27.4842 13.1497 27.4842 15.7246ZM24.7048 15.7246C24.7048 14.6822 23.8568 13.8342 22.8145 13.8342H14.0391C12.9968 13.8342 12.1489 14.6822 12.1489 15.7246V20.2678C12.1489 20.2472 12.1504 20.2266 12.1518 20.2045C12.2122 19.2594 13.1102 18.8663 13.9508 18.8324C14.5396 18.8089 24.4913 18.8295 24.7048 18.8295V15.7231V15.7246Z" fill="#353D51"/>
<path d="M37.464 11.1573H37.4478V6.07517C37.4478 4.96511 36.9326 4.38064 35.774 4.18336C34.979 4.04792 34.1841 3.91542 33.3891 3.78145C31.6211 3.48553 29.7941 3.18078 28.0055 2.85101C25.628 2.41376 22.535 1.72476 19.7056 0.268734C19.0004 -0.0949041 18.3556 -0.0890152 17.6151 0.283456C15.6189 1.29045 13.4593 2.02509 11.198 2.46676C8.81612 2.93198 6.3812 3.35598 4.02577 3.76673C3.23671 3.90512 2.44764 4.04203 1.66004 4.18189C0.530911 4.38359 0.00388389 4.96364 0.00388389 6.00892V8.06119C-0.000532534 9.82197 -0.00200468 11.5813 0.00388389 13.342C0.0127167 16.0288 0.0995732 18.9188 0.669292 21.8456C1.29348 25.0521 2.51094 28.0304 4.28782 30.698C6.04261 33.3333 8.26113 35.6535 11.0685 37.7927C13.075 39.3208 15.2509 40.7106 17.7211 42.0444C18.0376 42.2152 18.3512 42.3021 18.6662 42.3021C18.9813 42.3021 19.2816 42.2196 19.5951 42.0562C22.5321 40.5207 25.2393 38.7364 27.6404 36.7518C33.3818 32.0068 36.6146 25.8176 37.2476 18.352C37.3786 16.8062 37.4184 15.2338 37.4552 13.713C37.4728 13.0064 37.4905 12.2997 37.517 11.593L37.4655 11.1587L37.464 11.1573ZM2.42703 11.649V10.6773C2.4285 9.27135 2.42997 7.86686 2.41967 6.46236C2.41967 6.44764 2.41967 6.43439 2.41967 6.42261C2.43586 6.41819 2.45942 6.41378 2.49033 6.40789C3.04091 6.31808 3.59149 6.22975 4.14355 6.13994C6.00875 5.83961 7.93726 5.53045 9.82307 5.16386C13.3842 4.47192 16.0178 3.65484 18.3585 2.51387C18.5911 2.40051 18.7251 2.40051 18.9548 2.51092C22.0418 3.99492 25.3468 4.74281 28.4574 5.33022C29.9531 5.61142 31.4783 5.86022 32.9534 6.09872C33.5525 6.19589 34.1517 6.29306 34.7715 6.39611C34.8421 6.40789 34.9201 6.42114 34.9805 6.43292C34.9805 6.49033 34.9805 6.561 34.9805 6.6243C34.9717 7.66958 34.9702 8.71486 34.9687 9.76013C34.9643 12.1172 34.9614 14.5551 34.8774 16.946C34.7155 21.5541 33.5775 25.4805 31.3973 28.9535C30.0429 31.1103 28.3014 33.0757 26.0726 34.9645C23.6568 37.0109 20.9525 38.6274 18.8664 39.8081C18.706 39.8994 18.653 39.9068 18.4601 39.7978C15.3937 38.0635 13.05 36.4706 11.0832 34.7834C6.94945 31.2369 4.30548 26.9983 3.22199 22.1857C2.53744 19.1396 2.44175 15.9994 2.44028 13.3273V11.6475H2.42997L2.42703 11.649Z" fill="#FF2625"/>
</svg>
