<svg width="24" height="24" viewBox="0 0 24 24" fill="none" xmlns="http://www.w3.org/2000/svg">
<path fill-rule="evenodd" clip-rule="evenodd" d="M14.1104 9.77202L19.9752 0.264757C19.992 0.23752 20.0006 0.206869 20 0.175821C19.9994 0.144773 19.9897 0.114397 19.9718 0.0876821C19.9539 0.0609674 19.9285 0.0388342 19.898 0.0234601C19.8675 0.00808602 19.833 8.12198e-07 19.798 0H10.2673C10.2265 0.00013382 10.1867 0.0111798 10.1531 0.0316907C10.1195 0.0522017 10.0936 0.081221 10.079 0.114947L5.01345 11.8332C5.00169 11.8603 4.99755 11.8896 5.00139 11.9184C5.00524 11.9472 5.01695 11.9748 5.03552 11.9987C5.05409 12.0226 5.07895 12.0422 5.10797 12.0557C5.13698 12.0692 5.16928 12.0763 5.20206 12.0763H10.1432V12.078C10.2237 12.0779 10.3031 12.0946 10.375 12.1267C10.4468 12.1589 10.5091 12.2057 10.5566 12.2632C10.6042 12.3208 10.6357 12.3875 10.6486 12.4578C10.6615 12.5282 10.6554 12.6003 10.6308 12.6682L6.62938 23.7655C6.56118 23.954 6.83769 24.0863 6.97865 23.9327L19.1679 10.6312C19.1923 10.6047 19.2075 10.5725 19.2118 10.5385C19.2162 10.5045 19.2094 10.4701 19.1923 10.4394C19.1752 10.4087 19.1485 10.383 19.1154 10.3653C19.0823 10.3476 19.0442 10.3387 19.0056 10.3397L14.5798 10.442C14.4893 10.4452 14.3995 10.4271 14.3195 10.3895C14.2395 10.352 14.1722 10.2963 14.1245 10.2282C14.0767 10.16 14.0503 10.0819 14.0478 10.0018C14.0453 9.92164 14.0669 9.84235 14.1104 9.77202Z" fill="white"/>
</svg>
