<svg width="24" height="24" viewBox="0 0 24 24" fill="none" xmlns="http://www.w3.org/2000/svg">
<path d="M11.9785 6.39088C8.87186 6.39088 6.32637 8.93642 6.32637 12.0428C6.32637 15.1493 8.87186 17.695 11.9785 17.695C15.0851 17.695 17.6306 15.1495 17.6306 12.0428C17.6306 8.93619 15.0848 6.39088 11.9785 6.39088ZM12.4099 13.5097L11.39 14.5298C11.3172 14.6025 11.2185 14.6433 11.1156 14.6433C11.0127 14.6433 10.914 14.6025 10.8412 14.5298L8.84454 12.5331C8.77182 12.4603 8.73098 12.3616 8.73098 12.2587C8.73098 12.1558 8.77182 12.0571 8.84454 11.9843L9.58975 11.2388C9.66258 11.166 9.76132 11.1251 9.86429 11.1251C9.96725 11.1251 10.066 11.166 10.1388 11.2388L11.1156 12.2156L13.8179 9.55196C13.8909 9.48005 13.9893 9.4399 14.0917 9.44025C14.1942 9.44059 14.2924 9.48141 14.3649 9.55381L15.1101 10.2993C15.1463 10.3355 15.175 10.3785 15.1945 10.4259C15.2141 10.4732 15.224 10.524 15.2239 10.5752C15.2237 10.6265 15.2134 10.6772 15.1935 10.7244C15.1737 10.7716 15.1447 10.8145 15.1082 10.8504L12.4099 13.5097ZM11.9785 6.39088C8.87186 6.39088 6.32637 8.93642 6.32637 12.0428C6.32637 15.1493 8.87186 17.695 11.9785 17.695C15.0851 17.695 17.6306 15.1495 17.6306 12.0428C17.6306 8.93619 15.0848 6.39088 11.9785 6.39088ZM12.4099 13.5097L11.39 14.5298C11.3172 14.6025 11.2185 14.6433 11.1156 14.6433C11.0127 14.6433 10.914 14.6025 10.8412 14.5298L8.84454 12.5331C8.77182 12.4603 8.73098 12.3616 8.73098 12.2587C8.73098 12.1558 8.77182 12.0571 8.84454 11.9843L9.58975 11.2388C9.66258 11.166 9.76132 11.1251 9.86429 11.1251C9.96725 11.1251 10.066 11.166 10.1388 11.2388L11.1156 12.2156L13.8179 9.55196C13.8909 9.48005 13.9893 9.4399 14.0917 9.44025C14.1942 9.44059 14.2924 9.48141 14.3649 9.55381L15.1101 10.2993C15.1463 10.3355 15.175 10.3785 15.1945 10.4259C15.2141 10.4732 15.224 10.524 15.2239 10.5752C15.2237 10.6265 15.2134 10.6772 15.1935 10.7244C15.1737 10.7716 15.1447 10.8145 15.1082 10.8504L12.4099 13.5097ZM11.9785 6.39088C8.87186 6.39088 6.32637 8.93642 6.32637 12.0428C6.32637 15.1493 8.87186 17.695 11.9785 17.695C15.0851 17.695 17.6306 15.1495 17.6306 12.0428C17.6306 8.93619 15.0848 6.39088 11.9785 6.39088ZM12.4099 13.5097L11.39 14.5298C11.3172 14.6025 11.2185 14.6433 11.1156 14.6433C11.0127 14.6433 10.914 14.6025 10.8412 14.5298L8.84454 12.5331C8.77182 12.4603 8.73098 12.3616 8.73098 12.2587C8.73098 12.1558 8.77182 12.0571 8.84454 11.9843L9.58975 11.2388C9.66258 11.166 9.76132 11.1251 9.86429 11.1251C9.96725 11.1251 10.066 11.166 10.1388 11.2388L11.1156 12.2156L13.8179 9.55196C13.8909 9.48005 13.9893 9.4399 14.0917 9.44025C14.1942 9.44059 14.2924 9.48141 14.3649 9.55381L15.1101 10.2993C15.1463 10.3355 15.175 10.3785 15.1945 10.4259C15.2141 10.4732 15.224 10.524 15.2239 10.5752C15.2237 10.6265 15.2134 10.6772 15.1935 10.7244C15.1737 10.7716 15.1447 10.8145 15.1082 10.8504L12.4099 13.5097ZM22.0745 13.9413C21.7723 13.4235 21.8587 12.7332 22.247 12.2587L22.6354 11.8272C23.1963 11.18 23.1101 10.1876 22.3765 9.66983L21.9018 9.36785C21.3842 9.0228 21.1683 8.37553 21.3409 7.77157L21.5136 7.21045C21.7723 6.39065 21.2114 5.52778 20.3488 5.39833L19.7877 5.31218C19.1837 5.2258 18.709 4.75129 18.5796 4.14733L18.4934 3.58621C18.3637 2.72334 17.5011 2.20552 16.638 2.46443L16.0771 2.63719C15.4732 2.80972 14.8259 2.59388 14.4809 2.07607L14.1358 1.60179C13.618 0.911681 12.6257 0.781996 11.9785 1.38596L11.547 1.77432C11.0723 2.20575 10.4253 2.29213 9.8644 1.99015L9.3466 1.73125C8.56989 1.29981 7.62066 1.64487 7.31868 2.46466L7.10308 2.98248C6.88725 3.54337 6.2833 3.93173 5.67912 3.88865L5.20462 3.80227C4.34176 3.7592 3.60836 4.49238 3.69474 5.35548L3.73758 5.91637C3.78088 6.52057 3.4356 7.12453 2.83165 7.34013L2.31385 7.55597C1.49407 7.90102 1.19209 8.8505 1.62375 9.58392L1.92549 10.0584C2.2277 10.5762 2.14132 11.2666 1.75297 11.7411L1.36461 12.1725C0.803735 12.8198 0.889882 13.8121 1.62352 14.3299L2.09825 14.6319C2.61582 14.977 2.83165 15.6242 2.65913 16.2282L2.48637 16.7893C2.2277 17.6091 2.78858 18.472 3.6512 18.6014L4.21231 18.6876C4.81626 18.774 5.29099 19.2485 5.42045 19.8524L5.50659 20.4136C5.63628 21.2764 6.4989 21.7942 7.36198 21.5353L7.92286 21.3626C8.52681 21.1901 9.17407 21.4059 9.51912 21.9237L9.86417 22.3982C10.382 23.0883 11.3743 23.218 12.0215 22.614L12.453 22.2257C12.9277 21.7942 13.5747 21.7079 14.1356 22.0098L14.6534 22.2688C15.4301 22.7002 16.3793 22.3551 16.6813 21.5353L16.8969 21.0175C17.1127 20.4566 17.7167 20.0683 18.3209 20.1113L18.8818 20.1547C19.7446 20.1977 20.478 19.4643 20.3916 18.6014L20.3486 18.0406C20.3055 17.4364 20.6505 16.8324 21.2547 16.6166L21.7723 16.401C22.5921 16.0559 22.8943 15.1064 22.4626 14.373L22.0745 13.9413ZM11.9785 19.2916C7.96594 19.2916 4.68681 16.0124 4.68681 11.9998C4.68681 7.98717 7.96594 4.70798 11.9785 4.70798C15.991 4.70798 19.2699 7.98717 19.2699 11.9998C19.2699 16.0554 15.9908 19.2916 11.9785 19.2916Z" fill="white"/>
</svg>
