<svg width="24" height="24" viewBox="0 0 24 24" fill="none" xmlns="http://www.w3.org/2000/svg">
<path d="M21.9952 9.95892C21.9307 6.51358 21.4623 3.97246 21.4687 3.97012C21.2739 3.58058 20.9323 3.2548 20.5142 3.08839C17.7701 1.9976 15.0716 0.956494 12.4409 0.0682038C12.1719 -0.0227346 11.8884 -0.0227346 11.6199 0.0682038C8.98962 0.95415 6.29164 1.99338 3.54793 3.08276C3.17884 3.22948 2.86921 3.50089 2.66751 3.8309C2.68306 3.83277 2.10358 5.6867 2.00479 9.78127C1.94625 13.8763 2.44386 15.103 2.42739 15.1044C2.69678 16.0045 3.20079 16.9199 3.92297 17.8509C4.73021 18.8906 5.82102 19.9645 7.13868 21.0201C9.31984 22.7747 11.361 23.8233 11.4466 23.8603C11.6318 23.9531 11.828 24.0005 12.0302 24C12.2328 24 12.429 23.9527 12.6138 23.8594C12.6997 23.8223 14.7432 22.7705 16.9235 21.0164C18.2416 19.9598 19.3324 18.8859 20.1401 17.8467C20.914 16.8496 21.4372 15.8713 21.6901 14.9104C21.68 14.909 22.0459 13.4052 21.9952 9.95939V9.95892ZM13.1159 12.6463V14.8293C13.1159 15.4443 12.6298 15.9426 12.0297 15.943C11.4296 15.943 10.943 15.4448 10.943 14.8298V12.6772C10.16 12.2783 9.62124 11.4505 9.62124 10.4938C9.62124 9.14751 10.686 8.05578 11.9995 8.05578C13.3131 8.05578 14.3778 9.14704 14.3783 10.4933C14.3783 11.4261 13.8669 12.2366 13.1159 12.6463Z" fill="white"/>
</svg>
