<svg width="24" height="24" viewBox="0 0 24 24" fill="none" xmlns="http://www.w3.org/2000/svg">
<path d="M21.7282 4.07899C21.7086 3.94018 21.648 3.81003 21.5541 3.70455C21.4601 3.59908 21.3368 3.52288 21.1993 3.48533L12.1962 1.0263C12.0678 0.991233 11.9322 0.991233 11.8038 1.0263L2.80071 3.48533C2.66323 3.52288 2.53991 3.59908 2.44594 3.70455C2.35197 3.81003 2.29144 3.94018 2.27179 4.07899C2.21957 4.44777 1.0283 13.1611 4.08383 17.4958C7.13575 21.8253 11.638 22.9347 11.8281 22.9799C11.9411 23.0067 12.0589 23.0067 12.1719 22.9799C12.3621 22.9347 16.8643 21.8253 19.9162 17.4958C22.9717 13.1612 21.7804 4.44787 21.7282 4.07899ZM17.8058 9.16595L11.6648 15.1972C11.5219 15.3376 11.3345 15.4078 11.1472 15.4078C10.9599 15.4078 10.7725 15.3377 10.6296 15.1972L6.83268 11.4681C6.76468 11.4014 6.71074 11.3222 6.67393 11.2349C6.63713 11.1477 6.61818 11.0542 6.61818 10.9598C6.61818 10.8654 6.63713 10.7719 6.67393 10.6847C6.71074 10.5974 6.76468 10.5182 6.83268 10.4514L7.58659 9.71102C7.72387 9.5762 7.91005 9.50047 8.10419 9.50047C8.29832 9.50047 8.4845 9.5762 8.62179 9.71102L11.1472 12.1913L16.0167 7.40872C16.0847 7.34194 16.1654 7.28896 16.2542 7.25281C16.343 7.21666 16.4382 7.19806 16.5343 7.19806C16.6305 7.19806 16.7257 7.21666 16.8145 7.25281C16.9033 7.28896 16.984 7.34194 17.0519 7.40872L17.8058 8.14915C17.8738 8.21592 17.9278 8.29518 17.9646 8.38241C18.0013 8.46964 18.0203 8.56313 18.0203 8.65755C18.0203 8.75197 18.0013 8.84547 17.9646 8.9327C17.9278 9.01993 17.8738 9.09919 17.8058 9.16595Z" fill="white"/>
</svg>
