<svg width="24" height="24" viewBox="0 0 24 24" fill="none" xmlns="http://www.w3.org/2000/svg">
<g clip-path="url(#clip0_4010_117)">
<path d="M23.8779 10.284C23.8583 10.1472 23.7988 10.0192 23.7068 9.91606C23.6149 9.81288 23.4946 9.73909 23.3609 9.70391L22.1659 9.38943C21.9202 8.4299 21.5388 7.51038 21.033 6.65877L21.6565 5.58955C21.7261 5.4702 21.759 5.33299 21.7511 5.19505C21.7432 5.05711 21.6948 4.92456 21.612 4.81396C21.2677 4.35456 20.8912 3.92026 20.4852 3.51435C20.0793 3.10832 19.645 2.73171 19.1856 2.38738C19.0749 2.30456 18.9424 2.25618 18.8044 2.24827C18.6664 2.24037 18.5292 2.2733 18.4098 2.34294L17.3408 2.96657C16.4892 2.46071 15.5697 2.0792 14.6102 1.8336L14.2957 0.638614C14.2605 0.504961 14.1868 0.384634 14.0836 0.29267C13.9804 0.200705 13.8525 0.141181 13.7157 0.121535C12.5876 -0.0405117 11.4123 -0.0405117 10.2842 0.121535C10.1474 0.141181 10.0194 0.200705 9.91625 0.29267C9.81309 0.384634 9.73932 0.504961 9.70415 0.638614L9.38967 1.8336C8.43012 2.0792 7.51062 2.46071 6.65906 2.96657L5.59002 2.34294C5.47066 2.2733 5.33343 2.24037 5.19546 2.24827C5.0575 2.25618 4.92492 2.30456 4.81429 2.38738C3.89438 3.07692 3.07736 3.89397 2.38785 4.81391C2.30505 4.92452 2.25666 5.05706 2.24874 5.195C2.24082 5.33294 2.27372 5.47015 2.34332 5.58951L2.96685 6.65873C2.46103 7.51031 2.07954 8.42983 1.83398 9.38938L0.638944 9.70387C0.505287 9.73905 0.384961 9.81284 0.293005 9.91601C0.201048 10.0192 0.141538 10.1472 0.121913 10.284C-0.0406533 11.422 -0.0406376 12.5774 0.12196 13.7154C0.141585 13.8522 0.201095 13.9802 0.293052 14.0834C0.385008 14.1865 0.505334 14.2603 0.638991 14.2955L1.83402 14.61C2.07965 15.5695 2.46113 16.489 2.9669 17.3407L2.34337 18.4099C2.27377 18.5292 2.24087 18.6664 2.24879 18.8044C2.25671 18.9423 2.30509 19.0749 2.3879 19.1855C2.73217 19.6449 3.10872 20.0792 3.51468 20.4851C3.9206 20.8911 4.35492 21.2677 4.81434 21.612C4.92496 21.6949 5.05754 21.7432 5.19551 21.7512C5.33347 21.7591 5.47071 21.7261 5.59007 21.6565L6.6591 21.0329C7.51067 21.5387 8.43017 21.9202 9.38971 22.1658L9.7042 23.3608C9.73936 23.4944 9.81314 23.6147 9.9163 23.7067C10.0195 23.7987 10.1474 23.8582 10.2842 23.8778C10.8483 23.9589 11.4255 24 11.9999 24C12.5744 24 13.1516 23.9589 13.7157 23.8779C13.8525 23.8583 13.9805 23.7988 14.0837 23.7068C14.1868 23.6148 14.2606 23.4945 14.2957 23.3609L14.6102 22.1659C15.5698 21.9203 16.4893 21.5388 17.3408 21.033L18.4099 21.6566C18.5292 21.7262 18.6665 21.7591 18.8044 21.7512C18.9424 21.7433 19.075 21.695 19.1856 21.6121C20.1055 20.9226 20.9225 20.1055 21.612 19.1856C21.6949 19.075 21.7432 18.9425 21.7512 18.8045C21.7591 18.6666 21.7262 18.5294 21.6566 18.41L21.033 17.3408C21.5389 16.4892 21.9204 15.5697 22.1659 14.6101L23.361 14.2957C23.4946 14.2605 23.6149 14.1867 23.7069 14.0835C23.7989 13.9803 23.8584 13.8523 23.878 13.7155C24.0407 12.5775 24.0407 11.4221 23.8779 10.284ZM11.9999 19.4812C7.87476 19.4812 4.5187 16.1252 4.5187 12C4.5187 7.8748 7.87476 4.51874 11.9999 4.51874C16.1251 4.51874 19.4812 7.8748 19.4812 12C19.4812 16.1252 16.1251 19.4812 11.9999 19.4812Z" fill="white"/>
<path d="M12.0001 5.92505C8.65027 5.92505 5.92505 8.65027 5.92505 12.0001C5.92505 15.3498 8.65027 18.0751 12.0001 18.0751C15.3498 18.0751 18.0751 15.3498 18.0751 12.0001C18.0751 8.65027 15.3498 5.92505 12.0001 5.92505ZM15.5097 10.991L11.7441 14.7566C11.6123 14.8885 11.4334 14.9625 11.247 14.9625C11.0605 14.9625 10.8817 14.8885 10.7498 14.7566L8.86693 12.8738C8.59233 12.5993 8.59233 12.154 8.86693 11.8794C9.14147 11.6049 9.58669 11.6049 9.86129 11.8794L11.247 13.2651L14.5154 9.99661C14.79 9.72207 15.2352 9.72207 15.5098 9.99661C15.7843 10.2712 15.7843 10.7164 15.5097 10.991Z" fill="white"/>
</g>
<defs>
<clipPath id="clip0_4010_117">
<rect width="24" height="24" fill="white"/>
</clipPath>
</defs>
</svg>
