<svg width="24" height="24" viewBox="0 0 24 24" fill="none" xmlns="http://www.w3.org/2000/svg">
<path d="M13.5 13.5H10.625C9.83109 13.5 9.1875 14.1436 9.1875 14.9375V20.6875C9.1875 21.4814 9.83109 22.125 10.625 22.125H13.5C14.2939 22.125 14.9375 21.4814 14.9375 20.6875V14.9375C14.9375 14.1436 14.2939 13.5 13.5 13.5Z" fill="white"/>
<path d="M6.3125 15.6562H3.4375C2.64359 15.6562 2 16.2998 2 17.0938V20.6875C2 21.4814 2.64359 22.125 3.4375 22.125H6.3125C7.10641 22.125 7.75 21.4814 7.75 20.6875V17.0938C7.75 16.2998 7.10641 15.6562 6.3125 15.6562Z" fill="white"/>
<path d="M20.6875 9.90625H17.8125C17.0186 9.90625 16.375 10.5498 16.375 11.3438V20.6875C16.375 21.4814 17.0186 22.125 17.8125 22.125H20.6875C21.4814 22.125 22.125 21.4814 22.125 20.6875V11.3438C22.125 10.5498 21.4814 9.90625 20.6875 9.90625Z" fill="white"/>
<path d="M4.87496 12.7813C4.93483 12.7812 4.99447 12.7738 5.05249 12.759C7.62519 12.1039 10.1005 11.1131 12.4146 9.81209C14.9344 8.38885 17.2364 6.61067 19.25 4.53216V6.3125C19.25 6.50312 19.3257 6.68594 19.4605 6.82073C19.5953 6.95553 19.7781 7.03125 19.9687 7.03125C20.1593 7.03125 20.3421 6.95553 20.4769 6.82073C20.6117 6.68594 20.6875 6.50312 20.6875 6.3125V2.71875C20.6875 2.52813 20.6117 2.34531 20.4769 2.21052C20.3421 2.07573 20.1593 2 19.9687 2H16.375C16.1843 2 16.0015 2.07573 15.8667 2.21052C15.7319 2.34531 15.6562 2.52813 15.6562 2.71875C15.6562 2.90937 15.7319 3.09219 15.8667 3.22698C16.0015 3.36177 16.1843 3.4375 16.375 3.4375H18.2983C16.3632 5.45659 14.1438 7.18252 11.7103 8.56075C9.50572 9.79867 7.14787 10.7411 4.69742 11.3639C4.52568 11.4053 4.37522 11.5086 4.27478 11.654C4.17434 11.7993 4.13095 11.9766 4.15291 12.1519C4.17487 12.3272 4.26063 12.4883 4.39382 12.6044C4.52701 12.7205 4.69829 12.7834 4.87496 12.7813Z" fill="white"/>
</svg>
