<svg width="27" height="24" viewBox="0 0 27 24" fill="none" xmlns="http://www.w3.org/2000/svg">
<path fill-rule="evenodd" clip-rule="evenodd" d="M26.8317 9.66901C26.6888 9.49318 26.4962 9.40078 26.2725 9.40078H25.8691L23.0776 3.27027C22.9645 3.01955 22.7137 2.85512 22.4447 2.85529H21.0378C20.7886 2.85529 20.5895 2.83133 20.3454 2.79204C19.9586 2.7139 19.6076 2.54661 19.2451 2.39439C18.6567 2.1472 18.0728 2.03792 17.4371 2.03792H15.0656C14.7973 1.42731 14.1962 1 13.5 1C12.8039 1 12.2027 1.42731 11.9344 2.03792H9.56285C8.92671 2.03792 8.34343 2.1472 7.75485 2.39439C7.1039 2.6677 6.70451 2.85529 5.96216 2.85529H4.55528C4.42199 2.85559 4.29156 2.89482 4.17941 2.96834C4.06725 3.04186 3.97805 3.14661 3.92233 3.27022L1.13088 9.40078H0.648789L0.648901 9.40489C0.458591 9.42416 0.294095 9.51411 0.168321 9.66901C0.0255048 9.84485 -0.0277999 10.0551 0.0136593 10.2795C0.41702 12.465 2.29704 14.1184 4.55534 14.1184C6.81363 14.1184 8.69366 12.465 9.09702 10.2795C9.13842 10.0551 9.08512 9.8448 8.9423 9.66901C8.81652 9.51416 8.65203 9.42416 8.46172 9.40489L8.46183 9.40078H7.97969L5.64853 4.28116H5.96216C6.89717 4.28116 7.4577 4.05587 8.28415 3.70881C8.70729 3.53109 9.10562 3.46374 9.56285 3.46374H11.9344C12.1077 3.85706 12.4162 4.17194 12.8016 4.34886V14.4557L12.053 15.2198V20.4815H9.64509C9.16697 20.4815 8.75646 20.7234 8.51737 21.1461L7.46877 23H19.5312L18.4826 21.1461C18.2435 20.7234 17.833 20.4815 17.3549 20.4815H14.947V15.2198L14.1984 14.4557V4.34892C14.5837 4.17199 14.8922 3.85708 15.0656 3.46374H17.4371C17.8959 3.46374 18.291 3.53041 18.7158 3.70881C19.1824 3.90473 19.6041 4.09608 20.1067 4.19412C20.4087 4.25298 20.7148 4.28116 21.0378 4.28116H21.3514L19.0203 9.40078H18.6169C18.3931 9.40078 18.2005 9.49318 18.0577 9.66901C17.9149 9.84485 17.8616 10.0551 17.903 10.2795C18.3064 12.465 20.1864 14.1184 22.4447 14.1184C24.703 14.1184 26.583 12.465 26.9864 10.2795C27.0278 10.0551 26.9745 9.8448 26.8317 9.66901H26.8317ZM6.44234 9.40078H2.66811L4.55528 5.25628L6.4424 9.40078H6.44234ZM20.5575 9.40078L22.4446 5.25628L24.3318 9.40078H20.5575H20.5575Z" fill="white"/>
</svg>
