<svg width="24" height="24" viewBox="0 0 24 24" fill="none" xmlns="http://www.w3.org/2000/svg">
<path d="M3.2 21C2.595 21 2.07727 20.7799 1.6468 20.3396C1.21633 19.8994 1.00073 19.3695 1 18.75V5.25C1 4.63125 1.2156 4.10175 1.6468 3.6615C2.078 3.22125 2.59573 3.00075 3.2 3H20.8C21.405 3 21.9231 3.2205 22.3543 3.6615C22.7855 4.1025 23.0007 4.632 23 5.25V18.75C23 19.3687 22.7848 19.8986 22.3543 20.3396C21.9238 20.7806 21.4057 21.0007 20.8 21H3.2ZM12 12.9281C12.0917 12.9281 12.1881 12.9139 12.2893 12.8854C12.3905 12.8569 12.4866 12.8149 12.5775 12.7594L20.36 7.78125C20.5067 7.6875 20.6167 7.5705 20.69 7.43025C20.7633 7.29 20.8 7.13512 20.8 6.96562C20.8 6.59062 20.6442 6.30937 20.3325 6.12187C20.0208 5.93437 19.7 5.94375 19.37 6.15L12 10.875L4.63 6.15C4.3 5.94375 3.97917 5.93925 3.6675 6.1365C3.35583 6.33375 3.2 6.61012 3.2 6.96562C3.2 7.15312 3.23667 7.31737 3.31 7.45837C3.38333 7.59937 3.49333 7.707 3.64 7.78125L11.4225 12.7594C11.5142 12.8156 11.6106 12.858 11.7118 12.8865C11.813 12.915 11.9091 12.9289 12 12.9281Z" fill="#394157"/>
</svg>
