<svg width="24" height="24" viewBox="0 0 24 24" fill="none" xmlns="http://www.w3.org/2000/svg">
<path d="M14.0762 1.20036L13.4161 1.10809C11.432 0.822797 9.4073 1.10504 7.57812 1.9219C5.74894 2.73876 4.19061 4.0566 3.08479 5.72177C1.90822 7.31346 1.20684 9.20364 1.06136 11.1748C0.915883 13.1459 1.33222 15.1179 2.26245 16.8638C2.35766 17.0388 2.41693 17.2309 2.43681 17.4289C2.4567 17.6269 2.4368 17.8269 2.37828 18.0172C1.90341 19.6435 1.46329 21.2814 1 23L1.57911 22.827C3.1427 22.4118 4.70629 21.9965 6.26988 21.6159C6.5999 21.5476 6.94293 21.5797 7.25436 21.7082C8.65718 22.39 10.1902 22.7651 11.7506 22.8083C13.311 22.8515 14.8626 22.5618 16.3013 21.9587C17.74 21.3556 19.0325 20.453 20.0921 19.3115C21.1517 18.17 21.9539 16.816 22.4447 15.3403C22.9356 13.8646 23.1039 12.3015 22.9382 10.7558C22.7725 9.21002 22.2767 7.71746 21.4841 6.37824C20.6915 5.03902 19.6204 3.88413 18.3428 2.99107C17.0651 2.09802 15.6104 1.48745 14.0762 1.20036ZM16.9949 16.3332C16.574 16.7085 16.0607 16.966 15.5073 17.0795C14.9539 17.193 14.3802 17.1583 13.8446 16.9791C11.4181 16.2977 9.31279 14.7814 7.90296 12.7C7.36459 11.9636 6.93189 11.1561 6.61734 10.3008C6.44691 9.80461 6.41618 9.27138 6.52847 8.75899C6.64077 8.2466 6.89181 7.77461 7.25436 7.39423C7.43085 7.1699 7.6711 7.00371 7.94379 6.91731C8.21649 6.8309 8.50899 6.82828 8.7832 6.90979C9.01484 6.96746 9.17699 7.30195 9.38547 7.5557C9.55534 8.03245 9.75224 8.49766 9.97616 8.95134C10.1458 9.18261 10.2166 9.47131 10.1732 9.7544C10.1298 10.0375 9.97568 10.292 9.74452 10.4623C9.22332 10.9237 9.3044 11.3043 9.67503 11.8234C10.494 12.9993 11.6247 13.9257 12.9412 14.4993C13.3118 14.6608 13.5898 14.6954 13.833 14.3147C13.9373 14.1648 14.0762 14.0379 14.1921 13.8995C14.8638 13.0575 14.6553 13.0691 15.7209 13.5304C16.0606 13.6727 16.3888 13.838 16.7054 14.0264C17.0181 14.2109 17.493 14.407 17.5625 14.6838C17.6293 14.9842 17.6117 15.297 17.5116 15.588C17.4115 15.879 17.2327 16.1369 16.9949 16.3332Z" fill="#394157"/>
</svg>
